<svg width="30" height="30" viewBox="0 0 30 30" fill="none" xmlns="http://www.w3.org/2000/svg">
<path d="M22.2623 6.8625V7.7875L17.8373 5.225C16.1623 4.2625 13.8248 4.2625 12.1623 5.225L7.7373 7.8V6.8625C7.7373 4.05 9.2748 2.5 12.0873 2.5H17.9123C20.7248 2.5 22.2623 4.05 22.2623 6.8625Z" fill="url(#paint0_linear_2_7434)"/>
<path d="M22.3 9.96249L22.125 9.87499L20.425 8.89999L16.9 6.86249C15.825 6.23749 14.175 6.23749 13.1 6.86249L9.575 8.88749L7.875 9.88749L7.65 9.99999C5.4625 11.475 5.3125 11.75 5.3125 14.1125V19.7625C5.3125 22.125 5.4625 22.4 7.7 23.9125L13.1 27.025C13.6375 27.35 14.3125 27.4875 15 27.4875C15.675 27.4875 16.3625 27.3375 16.9 27.025L22.35 23.875C24.55 22.4 24.6875 22.1375 24.6875 19.7625V14.1125C24.6875 11.75 24.5375 11.475 22.3 9.96249ZM18.4875 16.875L17.725 17.8125C17.6 17.95 17.5125 18.2125 17.525 18.4L17.6 19.6C17.65 20.3375 17.125 20.7125 16.4375 20.45L15.325 20C15.15 19.9375 14.8625 19.9375 14.6875 20L13.575 20.4375C12.8875 20.7125 12.3625 20.325 12.4125 19.5875L12.4875 18.3875C12.5 18.2 12.4125 17.9375 12.2875 17.8L11.5125 16.875C11.0375 16.3125 11.25 15.6875 11.9625 15.5L13.125 15.2C13.3125 15.15 13.525 14.975 13.625 14.825L14.275 13.825C14.675 13.2 15.3125 13.2 15.725 13.825L16.375 14.825C16.475 14.9875 16.7 15.15 16.875 15.2L18.0375 15.5C18.75 15.6875 18.9625 16.3125 18.4875 16.875Z" fill="url(#paint1_linear_2_7434)"/>
<defs>
<linearGradient id="paint0_linear_2_7434" x1="34.5" y1="-45" x2="-11.5" y2="26.5" gradientUnits="userSpaceOnUse">
<stop offset="0.390186" stop-color="#59A49E"/>
<stop offset="0.767343" stop-color="#A6D8D2"/>
</linearGradient>
<linearGradient id="paint1_linear_2_7434" x1="7.5" y1="25" x2="25" y2="6" gradientUnits="userSpaceOnUse">
<stop offset="0.212076" stop-color="#FFB23F"/>
<stop offset="0.720856" stop-color="#FAD8A5"/>
</linearGradient>
</defs>
</svg>
