<svg width="99" height="173" viewBox="0 0 99 173" fill="none" xmlns="http://www.w3.org/2000/svg">
<path d="M68.7722 170.176C76.8333 169.316 87.6613 167.923 95.3683 165.73M95.3683 165.73C96.2564 165.477 92.4764 159.67 92.2796 159.417C87.9664 153.863 83.0587 149.044 77.9515 144.239M95.3683 165.73C51.6057 160.673 20.0205 129.269 19.3015 97.87C19.2303 94.758 19.156 91.3708 19.3834 87.9916M19.3834 87.9916C19.7457 82.6101 20.8733 77.249 23.9973 73.0523C26.8806 69.1792 32.2682 65.3483 37.28 65.9833C46.6421 67.17 49.3413 79.3919 42.984 85.8966C37.3976 91.6129 25.6684 92.7899 19.3834 87.9916ZM19.3834 87.9916C19.2509 87.8904 19.1207 87.7865 18.9931 87.68C-11.8091 61.9631 5.89073 18.2305 34.7893 2.64003" stroke="#A6D8D2" stroke-width="5" stroke-miterlimit="1.5" stroke-linecap="round" stroke-linejoin="round"/>
</svg>
